<?xml version="1.0" encoding="UTF-8" standalone="no"?>
<!-- Created with Inkscape (http://www.inkscape.org/) -->
<svg
   xmlns:dc="http://purl.org/dc/elements/1.1/"
   xmlns:cc="http://creativecommons.org/ns#"
   xmlns:rdf="http://www.w3.org/1999/02/22-rdf-syntax-ns#"
   xmlns:svg="http://www.w3.org/2000/svg"
   xmlns="http://www.w3.org/2000/svg"
   xmlns:xlink="http://www.w3.org/1999/xlink"
   xmlns:sodipodi="http://sodipodi.sourceforge.net/DTD/sodipodi-0.dtd"
   xmlns:inkscape="http://www.inkscape.org/namespaces/inkscape"
   width="22"
   height="22"
   id="svg2"
   sodipodi:version="0.32"
   inkscape:version="0.46"
   version="1.0"
   sodipodi:docname="mono.svg"
   inkscape:output_extension="org.inkscape.output.svg.inkscape"
   inkscape:export-filename="/Users/torsten/wcz/TimeTrack/Icon/mono.png"
   inkscape:export-xdpi="90"
   inkscape:export-ydpi="90">
  <defs
     id="defs4">
    <inkscape:perspective
       sodipodi:type="inkscape:persp3d"
       inkscape:vp_x="0 : 526.18109 : 1"
       inkscape:vp_y="0 : 1000 : 0"
       inkscape:vp_z="744.09448 : 526.18109 : 1"
       inkscape:persp3d-origin="372.04724 : 350.78739 : 1"
       id="perspective10" />
    <inkscape:perspective
       id="perspective2754"
       inkscape:persp3d-origin="372.04724 : 350.78739 : 1"
       inkscape:vp_z="744.09448 : 526.18109 : 1"
       inkscape:vp_y="0 : 1000 : 0"
       inkscape:vp_x="0 : 526.18109 : 1"
       sodipodi:type="inkscape:persp3d" />
  </defs>
  <sodipodi:namedview
     id="base"
     pagecolor="#ffffff"
     bordercolor="#666666"
     borderopacity="1.0"
     gridtolerance="10000"
     guidetolerance="10"
     objecttolerance="10"
     inkscape:pageopacity="0.0"
     inkscape:pageshadow="2"
     inkscape:zoom="5.6568542"
     inkscape:cx="14.384833"
     inkscape:cy="13.422973"
     inkscape:document-units="px"
     inkscape:current-layer="layer2"
     showgrid="false"
     inkscape:window-width="730"
     inkscape:window-height="806"
     inkscape:window-x="693"
     inkscape:window-y="52" />
  <metadata
     id="metadata7">
    <rdf:RDF>
      <cc:Work
         rdf:about="">
        <dc:format>image/svg+xml</dc:format>
        <dc:type
           rdf:resource="http://purl.org/dc/dcmitype/StillImage" />
      </cc:Work>
    </rdf:RDF>
  </metadata>
  <g
     inkscape:label="Template"
     inkscape:groupmode="layer"
     id="layer1"
     sodipodi:insensitive="true"
     style="display:none">
    <image
       y="1.1170304"
       x="1.802"
       id="image2756"
       height="20.08297"
       width="18.396"
       sodipodi:absref="/Users/torsten/wcz/TimeTrack/Icon/grahamgaches - 2470365640.jpg"
       xlink:href="grahamgaches - 2470365640.jpg"
       style="opacity:0.7" />
  </g>
  <g
     inkscape:groupmode="layer"
     id="layer2"
     inkscape:label="Nachgemalt"
     style="display:inline">
    <path
       style="fill:#000000;fill-opacity:1;stroke:none;stroke-width:0.5;stroke-linecap:round;stroke-linejoin:round;stroke-miterlimit:4;stroke-dasharray:none;stroke-opacity:1"
       d="M 11,4.265625 C 6.4381004,4.265625 2.75,7.9537256 2.75,12.515625 C 2.75,17.077525 6.4381004,20.796874 11,20.796875 C 15.5619,20.796875 19.25,17.077525 19.25,12.515625 C 19.25,7.9537254 15.5619,4.2656252 11,4.265625 z M 11,5.921875 C 14.638428,5.9218751 17.593749,8.8771968 17.59375,12.515625 C 17.59375,16.154055 14.638428,19.140624 11,19.140625 C 7.3615715,19.140624 4.4062498,16.154055 4.40625,12.515625 C 4.4062498,8.8771972 7.3615715,5.9218749 11,5.921875 z"
       id="path2761" />
    <g
       id="g3589"
       transform="translate(-2.1142872e-4,-0.234375)">
      <rect
         transform="matrix(0.7071068,-0.7071068,0.7071068,0.7071068,0,0)"
         ry="0"
         y="5.927444"
         x="-2.5762224"
         height="2.1213202"
         width="1.9887378"
         id="rect3574"
         style="opacity:1;fill:#000000;fill-opacity:1;stroke:none;stroke-width:0.5;stroke-linecap:round;stroke-linejoin:round;stroke-miterlimit:4;stroke-dasharray:none;stroke-opacity:1" />
      <rect
         ry="0"
         style="opacity:1;fill:#000000;fill-opacity:1;stroke:none;stroke-width:0.5;stroke-linecap:round;stroke-linejoin:round;stroke-miterlimit:4;stroke-dasharray:none;stroke-opacity:1"
         id="rect3576"
         width="1.9887378"
         height="2.1213202"
         x="-9.5629129"
         y="16.077841"
         transform="matrix(-0.7071068,0.7071068,0.7071068,0.7071068,0,0)" />
    </g>
    <rect
       style="fill:#000000;fill-opacity:1;stroke:none;stroke-width:0.5;stroke-linecap:round;stroke-linejoin:round;stroke-miterlimit:4;stroke-dasharray:none;stroke-opacity:1"
       id="rect3582"
       width="2.65625"
       height="2.4375"
       x="9.671875"
       y="1.203125"
       ry="0" />
    <path
       sodipodi:nodetypes="cssss"
       id="path3587"
       d="M 10.311206,12.960226 C 9.8825365,12.752217 10.631529,11.454946 11.025915,11.722314 L 16.324517,15.314419 C 16.718903,15.581787 16.48042,15.953797 16.05175,15.745788 L 10.311206,12.960226 z"
       style="fill:#000000;fill-opacity:1;stroke:none;stroke-width:0.5;stroke-linecap:round;stroke-linejoin:round;stroke-miterlimit:4;stroke-opacity:1" />
  </g>
  <g
     inkscape:groupmode="layer"
     id="layer3"
     inkscape:label="Helpers"
     style="display:none"
     sodipodi:insensitive="true">
    <path
       id="path3541"
       d="M 11,12.352344 C 10.771905,12.352344 10.5875,12.536749 10.5875,12.764844 C 10.5875,12.992939 10.771905,13.178906 11,13.178906 C 11.228095,13.178906 11.4125,12.992939 11.4125,12.764844 C 11.4125,12.536749 11.228095,12.352344 11,12.352344 z M 11,12.455468 C 11.171071,12.455468 11.309375,12.593773 11.309375,12.764844 C 11.309375,12.935915 11.171071,13.075782 11,13.075782 C 10.828929,13.075782 10.690625,12.935915 10.690625,12.764844 C 10.690625,12.593773 10.828929,12.455468 11,12.455468 z"
       style="opacity:1;fill:#00ff00;fill-opacity:1;stroke:none;stroke-width:0.5;stroke-linecap:round;stroke-linejoin:round;stroke-miterlimit:4;stroke-dasharray:none;stroke-opacity:1" />
  </g>
</svg>
