<?xml version="1.0" encoding="UTF-8" standalone="no"?>
<!-- Created with Inkscape (http://www.inkscape.org/) -->
<svg
   xmlns:dc="http://purl.org/dc/elements/1.1/"
   xmlns:cc="http://creativecommons.org/ns#"
   xmlns:rdf="http://www.w3.org/1999/02/22-rdf-syntax-ns#"
   xmlns:svg="http://www.w3.org/2000/svg"
   xmlns="http://www.w3.org/2000/svg"
   xmlns:xlink="http://www.w3.org/1999/xlink"
   xmlns:sodipodi="http://sodipodi.sourceforge.net/DTD/sodipodi-0.dtd"
   xmlns:inkscape="http://www.inkscape.org/namespaces/inkscape"
   width="22"
   height="22"
   id="svg2"
   sodipodi:version="0.32"
   inkscape:version="0.46"
   version="1.0"
   sodipodi:docname="mono.svg"
   inkscape:output_extension="org.inkscape.output.svg.inkscape"
   inkscape:export-filename="/Users/torsten/wcz/TimeTrack/Icon/mono.png"
   inkscape:export-xdpi="90"
   inkscape:export-ydpi="90">
  <defs
     id="defs4">
    <inkscape:perspective
       sodipodi:type="inkscape:persp3d"
       inkscape:vp_x="0 : 526.18109 : 1"
       inkscape:vp_y="0 : 1000 : 0"
       inkscape:vp_z="744.09448 : 526.18109 : 1"
       inkscape:persp3d-origin="372.04724 : 350.78739 : 1"
       id="perspective10" />
    <inkscape:perspective
       id="perspective2754"
       inkscape:persp3d-origin="372.04724 : 350.78739 : 1"
       inkscape:vp_z="744.09448 : 526.18109 : 1"
       inkscape:vp_y="0 : 1000 : 0"
       inkscape:vp_x="0 : 526.18109 : 1"
       sodipodi:type="inkscape:persp3d" />
  </defs>
  <sodipodi:namedview
     id="base"
     pagecolor="#ffffff"
     bordercolor="#666666"
     borderopacity="1.0"
     gridtolerance="10000"
     guidetolerance="10"
     objecttolerance="10"
     inkscape:pageopacity="0.0"
     inkscape:pageshadow="2"
     inkscape:zoom="32"
     inkscape:cx="10.775594"
     inkscape:cy="13.422973"
     inkscape:document-units="px"
     inkscape:current-layer="layer2"
     showgrid="false"
     inkscape:window-width="730"
     inkscape:window-height="806"
     inkscape:window-x="693"
     inkscape:window-y="52" />
  <metadata
     id="metadata7">
    <rdf:RDF>
      <cc:Work
         rdf:about="">
        <dc:format>image/svg+xml</dc:format>
        <dc:type
           rdf:resource="http://purl.org/dc/dcmitype/StillImage" />
      </cc:Work>
    </rdf:RDF>
  </metadata>
  <g
     inkscape:label="Template"
     inkscape:groupmode="layer"
     id="layer1"
     sodipodi:insensitive="true"
     style="display:none">
    <image
       y="1.1170304"
       x="1.802"
       id="image2756"
       height="20.08297"
       width="18.396"
       sodipodi:absref="/Users/torsten/wcz/TimeTrack/Icon/grahamgaches - 2470365640.jpg"
       xlink:href="grahamgaches - 2470365640.jpg"
       style="opacity:0.7" />
  </g>
  <g
     inkscape:groupmode="layer"
     id="layer2"
     inkscape:label="Nachgemalt"
     style="display:inline">
    <path
       style="fill:#000000;fill-opacity:1;stroke:none;stroke-width:0.5;stroke-linecap:round;stroke-linejoin:round;stroke-miterlimit:4;stroke-dasharray:none;stroke-opacity:1"
       d="M 9.7780708,4.5260239 C 5.3716142,5.7067304 2.7637334,10.223713 3.9444398,14.630169 C 5.1251465,19.036626 9.6502162,21.674691 14.056673,20.493986 C 18.46313,19.313279 21.062922,14.766112 19.882216,10.359655 C 18.701509,5.9531982 14.184528,3.3453175 9.7780708,4.5260239 z M 10.20674,6.1258385 C 13.721191,5.1841441 17.340706,7.2738723 18.282401,10.788324 C 19.224096,14.302778 17.142455,17.952476 13.628004,18.894171 C 10.113552,19.835865 6.4859493,17.715954 5.5442545,14.2015 C 4.6025599,10.687049 6.6922878,7.067533 10.20674,6.1258385 z"
       id="path2761" />
    <rect
       style="fill:#000000;fill-opacity:1;stroke:#000000;stroke-width:0.25;stroke-linecap:round;stroke-linejoin:miter;stroke-miterlimit:4;stroke-dasharray:none;stroke-opacity:1"
       id="rect3574"
       width="1.9887378"
       height="2.1213202"
       x="-5.8293037"
       y="6.0957847"
       ry="0"
       transform="matrix(0.5,-0.8660254,0.8660254,0.5,0,0)" />
    <rect
       transform="matrix(-0.5,0.8660254,0.8660254,0.5,0,0)"
       y="15.533341"
       x="-5.357007"
       height="2.1213202"
       width="1.9887378"
       id="rect3576"
       style="fill:#000000;fill-opacity:1;stroke:none;stroke-width:0.5;stroke-linecap:round;stroke-linejoin:round;stroke-miterlimit:4;stroke-dasharray:none;stroke-opacity:1"
       ry="0" />
    <rect
       style="fill:#000000;fill-opacity:1;stroke:none;stroke-width:0.5;stroke-linecap:round;stroke-linejoin:round;stroke-miterlimit:4;stroke-dasharray:none;stroke-opacity:1"
       id="rect3582"
       width="2.65625"
       height="2.4375"
       x="6.9646935"
       y="4.4922862"
       ry="0"
       transform="matrix(0.9659258,-0.258819,0.258819,0.9659258,0,0)" />
    <path
       sodipodi:nodetypes="cssss"
       id="path3587"
       d="M 11.363075,13.102637 C 10.895175,13.012663 11.282888,11.565742 11.733036,11.721925 L 17.780797,13.820253 C 18.230945,13.976436 18.096871,14.397494 17.628971,14.307521 L 11.363075,13.102637 z"
       style="fill:#000000;fill-opacity:1;stroke:none;stroke-width:0.5;stroke-linecap:round;stroke-linejoin:round;stroke-miterlimit:4;stroke-opacity:1" />
  </g>
  <g
     inkscape:groupmode="layer"
     id="layer3"
     inkscape:label="Helpers"
     style="display:none"
     sodipodi:insensitive="true">
    <path
       id="path3541"
       d="M 11,12.352344 C 10.771905,12.352344 10.5875,12.536749 10.5875,12.764844 C 10.5875,12.992939 10.771905,13.178906 11,13.178906 C 11.228095,13.178906 11.4125,12.992939 11.4125,12.764844 C 11.4125,12.536749 11.228095,12.352344 11,12.352344 z M 11,12.455468 C 11.171071,12.455468 11.309375,12.593773 11.309375,12.764844 C 11.309375,12.935915 11.171071,13.075782 11,13.075782 C 10.828929,13.075782 10.690625,12.935915 10.690625,12.764844 C 10.690625,12.593773 10.828929,12.455468 11,12.455468 z"
       style="opacity:1;fill:#00ff00;fill-opacity:1;stroke:none;stroke-width:0.5;stroke-linecap:round;stroke-linejoin:round;stroke-miterlimit:4;stroke-dasharray:none;stroke-opacity:1" />
  </g>
</svg>
